<?xml version="1.0" encoding="utf-8"?>
<!-- Generator: Adobe Illustrator 20.0.0, SVG Export Plug-In . SVG Version: 6.00 Build 0)  -->
<svg version="1.1" id="Layer_1" xmlns="http://www.w3.org/2000/svg" xmlns:xlink="http://www.w3.org/1999/xlink" x="0px" y="0px"
	 viewBox="0 0 64 64" style="enable-background:new 0 0 64 64;" xml:space="preserve">
<style type="text/css">
	.st0{fill:#1D1F21;}
</style>
<title>Asset 70</title>
<g id="Layer_2">
	<g id="Layer_1-2">
		<path class="st0" d="M9,9H1V1h8V9z M3,7h4V3H3V7z"/>
		<path class="st0" d="M45,9h-8V1h8V9z M39,7h4V3h-4V7z"/>
		<path class="st0" d="M9,45H1v-8h8V45z M3,43h4v-4H3V43z"/>
		<path class="st0" d="M45,45h-8v-8h8V45z M39,43h4v-4h-4V43z"/>
		<rect x="4" y="8" class="st0" width="2" height="30"/>
		<rect x="40" y="8" class="st0" width="2" height="30"/>
		<rect x="8" y="40" class="st0" width="30" height="2"/>
		<rect x="8" y="4" class="st0" width="30" height="2"/>
		<path class="st0" d="M27,27h-8v-8h8V27z M21,25h4v-4h-4V25z"/>
		<path class="st0" d="M63,27h-8v-8h8V27z M57,25h4v-4h-4V25z"/>
		<path class="st0" d="M27,63h-8v-8h8V63z M21,61h4v-4h-4V61z"/>
		<path class="st0" d="M63,63h-8v-8h8V63z M57,61h4v-4h-4V61z"/>
		<rect x="22" y="26" class="st0" width="2" height="30"/>
		<rect x="58" y="26" class="st0" width="2" height="30"/>
		<rect x="26" y="58" class="st0" width="30" height="2"/>
		<rect x="26" y="22" class="st0" width="30" height="2"/>
		<rect x="50" y="9" class="st0" width="2" height="3"/>
		<rect x="50" y="14" class="st0" width="2" height="3"/>
		<rect x="52" y="12" class="st0" width="3" height="2"/>
		<rect x="47" y="12" class="st0" width="3" height="2"/>
		<rect x="12" y="47" class="st0" width="2" height="3"/>
		<rect x="12" y="52" class="st0" width="2" height="3"/>
		<rect x="14" y="50" class="st0" width="3" height="2"/>
		<rect x="9" y="50" class="st0" width="3" height="2"/>
	</g>
</g>
</svg>
